<svg width="40" height="40" fill="none" xmlns="http://www.w3.org/2000/svg"><path fill-rule="evenodd" clip-rule="evenodd" d="M6 2h27v17.81a6.48 6.48 0 0 1 2 4.69 6.482 6.482 0 0 1-2 4.69V39h-1.185l-.14-.12-3.175-2.722-3.175 2.722-.14.12H24v-3H6V2zm26 1v16.022a6.5 6.5 0 0 0-8 10.169V35H7V3h25zm-7 34.842v-7.864A6.471 6.471 0 0 0 28.5 31c1.288 0 2.49-.375 3.5-1.022v7.864l-3.175-2.722-.325-.278-.325.278L25 37.842zM28 10H11V9h17v1zm0 6H11v-1h17v1zm-8 6h-9v-1h9v1zm0 6h-9v-1h9v1zm8.5-9a5.5 5.5 0 1 0 0 11 5.5 5.5 0 0 0 0-11zM26 24.5a2.501 2.501 0 0 1 5 0 2.501 2.501 0 0 1-5 0zm2.5-3.5a3.501 3.501 0 0 0 0 7 3.501 3.501 0 0 0 0-7z" fill="#000"></path></svg>