<svg width="24" height="24" viewBox="0 0 24 24" fill="#f93c00" xmlns="http://www.w3.org/2000/svg"><path d="M11.3547 20.7284C11.0881 20.5848 10.7091 20.3726 10.2553 20.0957C9.34857 19.5427 8.13747 18.7284 6.92393 17.6846C4.51753 15.6145 2 12.5528 2 8.762C2 7.25355 2.40586 5.81956 3.25449 4.75125C4.11406 3.66918 5.39992 3 7.06 3C8.32536 3 9.55075 3.55276 10.4568 4.3687C11.2325 5.06721 11.8141 5.99638 11.9628 7H12.0372C12.1859 5.99638 12.7675 5.06721 13.5432 4.3687C14.4492 3.55276 15.6746 3 16.94 3C18.6001 3 19.8859 3.66918 20.7455 4.75125C21.5941 5.81956 22 7.25355 22 8.762C22 12.5528 19.4825 15.6145 17.0761 17.6846C15.8625 18.7284 14.6514 19.5427 13.7447 20.0957C13.2909 20.3726 12.9119 20.5848 12.6453 20.7284C12.4327 20.8428 12 21 12 21C12 21 11.5673 20.8428 11.3547 20.7284Z" fill="f93c00"></path></svg>