<svg width="24" height="24" viewBox="0 0 24 24" fill="none" xmlns="http://www.w3.org/2000/svg"><path fill-rule="evenodd" clip-rule="evenodd" d="M4.03751 5.37325C3.36214 6.22344 3 7.42045 3 8.762C3 12.1032 5.23247 14.9105 7.57607 16.9264C8.73753 17.9256 9.90143 18.7086 10.776 19.242C11.2127 19.5084 11.576 19.7118 11.8288 19.8479C11.8933 19.8826 11.9506 19.913 12 19.9388C12.0494 19.913 12.1067 19.8826 12.1712 19.8479C12.424 19.7118 12.7873 19.5084 13.224 19.242C14.0986 18.7086 15.2625 17.9256 16.4239 16.9264C18.7675 14.9105 21 12.1032 21 8.762C21 7.42045 20.6379 6.22344 19.9625 5.37325C19.2981 4.53682 18.3039 4 16.94 4C15.9594 4 14.9648 4.43424 14.2123 5.1118C13.457 5.79203 13 6.66609 13 7.5V8H12.5H12H11.5H11V7.5C11 6.66609 10.543 5.79203 9.78766 5.1118C9.03525 4.43424 8.04064 4 7.06 4C5.69608 4 4.70194 4.53682 4.03751 5.37325ZM12 20.5C11.7819 20.9499 11.7817 20.9498 11.7815 20.9497L11.7809 20.9494L11.7791 20.9485L11.7728 20.9455L11.7502 20.9343C11.7308 20.9247 11.7026 20.9105 11.6662 20.892C11.5935 20.8549 11.4881 20.8002 11.3547 20.7284C11.0881 20.5848 10.7091 20.3726 10.2553 20.0957C9.34857 19.5427 8.13747 18.7284 6.92393 17.6846C4.51753 15.6145 2 12.5528 2 8.762C2 7.25355 2.40586 5.81956 3.25449 4.75125C4.11406 3.66918 5.39992 3 7.06 3C8.32536 3 9.55075 3.55276 10.4568 4.3687C11.2325 5.06721 11.8141 5.99638 11.9628 7H12H12.0372C12.1859 5.99638 12.7675 5.06721 13.5432 4.3687C14.4492 3.55276 15.6746 3 16.94 3C18.6001 3 19.8859 3.66918 20.7455 4.75125C21.5941 5.81956 22 7.25355 22 8.762C22 12.5528 19.4825 15.6145 17.0761 17.6846C15.8625 18.7284 14.6514 19.5427 13.7447 20.0957C13.2909 20.3726 12.9119 20.5848 12.6453 20.7284C12.5119 20.8002 12.4065 20.8549 12.3338 20.892C12.2974 20.9105 12.2692 20.9247 12.2498 20.9343L12.2272 20.9455L12.2209 20.9485L12.2191 20.9494L12.2185 20.9497C12.2183 20.9498 12.2181 20.9499 12 20.5ZM12 20.5L12.2181 20.9499L12 21.0557L11.7819 20.9499L12 20.5Z" fill="#888"></path></svg>