<svg width="24" height="24" viewBox="0 0 24 24" fill="none" xmlns="http://www.w3.org/2000/svg"><path fill-rule="evenodd" clip-rule="evenodd" d="M10.1036 5.10355C9.73039 5.47671 9.5 6.07707 9.5 7H8.5C8.5 5.92293 8.76961 5.02329 9.39645 4.39645C10.0233 3.76961 10.9229 3.5 12 3.5C13.0771 3.5 13.9767 3.76961 14.6036 4.39645C15.2304 5.02329 15.5 5.92293 15.5 7C15.5 8.07707 15.2304 8.97671 14.6036 9.60355C14.0764 10.1307 13.3563 10.4052 12.5 10.4792V11.6836L21.714 16.0481L22 16.1836V16.5V18.5V19H21.5H2.5H2V18.5V16.5V16.1836L2.28596 16.0481L11.5 11.6836V10V9.5H12C12.9229 9.5 13.5233 9.26961 13.8964 8.89645C14.2696 8.52329 14.5 7.92293 14.5 7C14.5 6.07707 14.2696 5.47671 13.8964 5.10355C13.5233 4.73039 12.9229 4.5 12 4.5C11.0771 4.5 10.4767 4.73039 10.1036 5.10355ZM12 12.5533L3 16.8164V18H21V16.8164L12 12.5533Z" fill="black"></path></svg>