<svg xmlns="http://www.w3.org/2000/svg" width="24" height="24" fill="none"><path fill="#000" d="M12.5 22.5v.5h.332l.129-.305-.46-.195zm-1 0l-.46.196.13.304h.33v-.5zm1.46.195c1.16-2.735 2.868-5.001 4.344-7.224C18.756 13.282 20 11.11 20 8.684h-1c0 2.095-1.074 4.04-2.53 6.234-1.432 2.159-3.224 4.54-4.43 7.387l.92.39zM20 8.685C20 4.472 16.832 1 12 1v1c4.28 0 7 3.026 7 6.684h1zM12 1C7.169 1 4 4.473 4 8.684h1C5 5.026 7.72 2 12 2V1zM4 8.684c0 2.4 1.242 4.573 2.692 6.767 1.474 2.229 3.184 4.509 4.348 7.245l.92-.392c-1.21-2.844-3-5.239-4.434-7.404C6.071 12.697 5 10.753 5 8.684H4zM11.5 23h1v-1h-1v1zm.5-10c-1.665 0-2.612-.281-3.165-.833C8.28 11.616 8 10.673 8 9.014H7c0 1.713.277 3.013 1.128 3.861C8.98 13.724 10.282 14 12 14v-1zM8 9.014c0-1.658.281-2.61.836-3.169C9.39 5.287 10.338 5 12 5V4c-1.72 0-3.023.284-3.873 1.14C7.277 5.997 7 7.302 7 9.015h1zM12 5c1.662 0 2.61.287 3.164.845.555.56.836 1.511.836 3.17h1c0-1.714-.277-3.02-1.127-3.874C15.023 4.284 13.72 4 12 4v1zm4 4.014c0 1.659-.281 2.602-.835 3.153-.553.552-1.5.833-3.165.833v1c1.718 0 3.02-.276 3.872-1.125.85-.848 1.128-2.148 1.128-3.86h-1z"></path></svg>