<svg width="40" height="40" fill="none" xmlns="http://www.w3.org/2000/svg"><path fill-rule="evenodd" clip-rule="evenodd" d="M2.5 5H2v8h1v18.083h17V37h13v-5.934L36.51 31l.49-.01V13h1V5H2.5zM20 21.5v8.583H4V13h17.5c.876 0 2.246.453 3.146 1.354.743.742 1.182 1.805 1.312 2.646h-1.665l-.147.146-4 4-.146.147v.207zm6-3.5h-1.293L21 21.707V36h11V21.707L28.293 18H27v1.063a2 2 0 1 1-1 0V18zm.968-1c-.132-1.07-.669-2.408-1.614-3.354A5.209 5.209 0 0 0 24.56 13H36v17.01l-3 .056V21.293l-.146-.147-4-4-.147-.146h-1.739zM21.5 12H37V6H3v6h18.5zm-12 5A2.5 2.5 0 0 0 7 19.5v4A2.5 2.5 0 0 0 9.5 26h4a2.5 2.5 0 0 0 2.5-2.5v-4a2.5 2.5 0 0 0-2.5-2.5h-4zM8 19.5A1.5 1.5 0 0 1 9.5 18h4a1.5 1.5 0 0 1 1.5 1.5v4a1.5 1.5 0 0 1-1.5 1.5h-4A1.5 1.5 0 0 1 8 23.5v-4zM24.5 26a2.5 2.5 0 0 0-2.5 2.5v4a2.5 2.5 0 0 0 2.5 2.5h4a2.5 2.5 0 0 0 2.5-2.5v-4a2.5 2.5 0 0 0-2.5-2.5h-4zM23 28.5a1.5 1.5 0 0 1 1.5-1.5h4a1.5 1.5 0 0 1 1.5 1.5v4a1.5 1.5 0 0 1-1.5 1.5h-4a1.5 1.5 0 0 1-1.5-1.5v-4zm3.5-8.5a1 1 0 1 0 0 2 1 1 0 0 0 0-2z" fill="#000"></path></svg>