<svg width="24" height="24" fill="none" xmlns="http://www.w3.org/2000/svg"><path d="M3.5 18.5l-1-3 5-2.5c1.5 1 3 1.5 4.5 1.5s3-.5 4.5-1.5l5 2.5-1 3c-.5 1.5-1.5 2-3 2h-11c-1.5 0-2.5-.5-3-2z" fill="#000"></path><path fill-rule="evenodd" clip-rule="evenodd" d="M17 7.5a5 5 0 1 1-10 0 5 5 0 0 1 10 0z" fill="#000"></path><path d="M3.5 18.5l-1-3 5-2.5c1.5 1 3 1.5 4.5 1.5s3-.5 4.5-1.5l5 2.5-1 3c-.5 1.5-1.5 2-3 2h-11c-1.5 0-2.5-.5-3-2z" stroke="#000"></path><path clip-rule="evenodd" d="M17 7.5a5 5 0 1 1-10 0 5 5 0 0 1 10 0z" stroke="#000"></path></svg>